<?xml version="1.0" standalone="no"?>
<!DOCTYPE svg PUBLIC "-//W3C//DTD SVG 20010904//EN"
 "http://www.w3.org/TR/2001/REC-SVG-20010904/DTD/svg10.dtd">
<svg version="1.0" xmlns="http://www.w3.org/2000/svg"
 width="300.000000pt" height="107.000000pt" viewBox="0 0 300.000000 107.000000"
 preserveAspectRatio="xMidYMid meet">

<g transform="translate(0.000000,107.000000) scale(0.100000,-0.100000)"
fill="#000000" stroke="none">
<path d="M10 540 l0 -530 433 -2 c237 -2 908 -2 1490 0 l1057 2 0 530 0 530
-1490 0 -1490 0 0 -530z m858 -2 l2 -498 -415 0 -415 0 0 500 0 500 413 -2
412 -3 3 -497z m1712 91 c3 -33 8 -49 13 -41 15 23 82 14 111 -14 23 -23 26
-35 26 -91 0 -47 -3 -64 -12 -61 -8 3 -14 27 -16 59 -4 62 -23 89 -62 89 -39
0 -58 -27 -62 -89 -2 -32 -8 -56 -15 -59 -10 -3 -13 28 -13 133 0 105 3 136
13 133 7 -3 14 -28 17 -59z m-772 8 c3 -32 7 -37 28 -37 15 0 24 -6 24 -15 0
-9 -9 -15 -25 -15 -24 0 -25 -3 -25 -59 0 -60 12 -78 40 -61 20 12 33 1 19
-16 -14 -17 -61 -18 -77 -2 -17 17 -17 251 1 246 6 -3 13 -21 15 -41z m-692
-48 c4 -8 9 -8 17 0 21 21 83 13 111 -15 23 -23 26 -35 26 -90 0 -50 -3 -64
-15 -64 -12 0 -15 13 -15 57 0 65 -18 93 -60 93 -39 0 -58 -27 -62 -89 -2 -32
-8 -56 -15 -59 -10 -3 -13 19 -13 87 0 83 8 108 26 80z m355 -19 c20 -19 29
-38 27 -52 -3 -21 -9 -23 -75 -26 -40 -2 -73 -6 -73 -10 0 -29 62 -42 100 -22
26 14 39 -9 15 -27 -28 -19 -88 -16 -117 7 -32 24 -40 65 -23 106 26 62 97 74
146 24z m139 -5 l36 -35 34 35 c19 19 38 35 42 35 17 0 7 -26 -24 -57 l-32
-33 32 -33 c56 -58 33 -81 -25 -25 l-33 32 -33 -32 c-31 -30 -57 -41 -57 -25
0 4 16 23 35 43 l35 36 -35 34 c-35 34 -45 60 -23 60 7 0 28 -16 48 -35z m453
21 c9 -7 17 -18 17 -25 0 -14 -27 -15 -35 -1 -10 16 -57 12 -77 -7 -18 -16
-24 -58 -10 -80 15 -23 58 -32 86 -18 18 10 28 10 32 3 11 -17 -26 -38 -68
-38 -82 0 -119 92 -61 152 30 31 84 38 116 14z m218 -15 c25 -26 29 -37 29
-88 l0 -59 -67 -2 c-56 -2 -70 1 -89 19 -31 29 -39 71 -20 108 31 60 99 70
147 22z m197 17 c-3 -7 -22 -14 -44 -16 -21 -2 -43 -7 -48 -12 -17 -16 15 -40
53 -40 44 0 61 -14 61 -51 0 -36 -16 -47 -75 -49 -68 -2 -75 -2 -75 10 0 6 20
10 44 10 57 0 76 8 76 31 0 15 -7 19 -40 19 -27 0 -47 7 -60 20 -24 24 -25 38
-4 68 12 18 25 22 65 22 36 0 49 -4 47 -12z"/>
<path d="M356 856 c-86 -32 -160 -118 -176 -205 -5 -29 -10 -150 -10 -267 0
-207 1 -214 20 -214 19 0 20 7 20 243 0 278 4 294 83 363 77 68 172 82 263 40
58 -27 120 -94 134 -145 5 -20 10 -141 10 -268 0 -200 2 -233 15 -233 22 0 22
480 0 533 -21 50 -69 103 -123 134 -55 33 -174 42 -236 19z"/>
<path d="M1366 554 c-27 -27 -18 -34 44 -34 63 0 71 7 42 33 -23 21 -66 22
-86 1z"/>
<path d="M2176 555 c-25 -25 -29 -54 -12 -80 33 -51 116 -25 116 35 0 51 -68
80 -104 45z"/>
</g>
</svg>
